<svg xmlns="http://www.w3.org/2000/svg" xmlns:xlink="http://www.w3.org/1999/xlink" version="1.1" width="256" height="256" viewBox="0 0 256 256" xml:space="preserve">

<defs>
</defs>
<g style="stroke: none; stroke-width: 0; stroke-dasharray: none; stroke-linecap: butt; stroke-linejoin: miter; stroke-miterlimit: 10; fill: none; fill-rule: nonzero; opacity: 1;" transform="translate(1.4065934065934016 1.4065934065934016) scale(2.81 2.81)" >
	<path d="M 43.183 72.482 c -0.116 0 -0.231 -0.02 -0.342 -0.061 c -0.25 -0.091 -0.453 -0.276 -0.564 -0.517 l -3.311 -7.101 c -2.331 -4.998 -1.425 -10.957 2.225 -15.054 l -2.279 -4.886 c -5.491 0.154 -10.631 -2.974 -12.962 -7.972 l -3.311 -7.101 c -0.233 -0.5 -0.017 -1.095 0.483 -1.329 l 23.272 -10.852 c 0.241 -0.111 0.517 -0.124 0.765 -0.033 c 0.249 0.09 0.452 0.276 0.564 0.517 l 3.311 7.1 c 2.331 4.998 1.426 10.957 -2.224 15.053 l 2.277 4.886 c 5.516 -0.151 10.633 2.974 12.962 7.972 l 3.312 7.1 c 0.112 0.24 0.124 0.516 0.033 0.765 s -0.276 0.452 -0.517 0.564 L 43.605 72.388 C 43.472 72.451 43.327 72.482 43.183 72.482 z M 39.532 42.828 c 0.386 0 0.741 0.223 0.906 0.577 l 2.851 6.112 c 0.177 0.379 0.099 0.828 -0.195 1.125 c -3.463 3.509 -4.394 8.86 -2.316 13.316 l 2.889 6.194 l 21.46 -10.007 l -2.889 -6.193 c -2.078 -4.457 -6.784 -7.193 -11.689 -6.785 c -0.427 0.032 -0.812 -0.197 -0.987 -0.574 l -2.85 -6.113 c -0.177 -0.379 -0.099 -0.828 0.194 -1.125 c 3.463 -3.508 4.394 -8.859 2.315 -13.315 c 0 0 0 0 0 0 l -2.888 -6.193 l -21.46 10.007 l 2.888 6.194 c 2.078 4.456 6.779 7.172 11.689 6.785 C 39.478 42.829 39.505 42.828 39.532 42.828 z" style="stroke: none; stroke-width: 1; stroke-dasharray: none; stroke-linecap: butt; stroke-linejoin: miter; stroke-miterlimit: 10; fill: rgb(0,0,0); fill-rule: nonzero; opacity: 1;" transform=" matrix(1 0 0 1 0 0) " stroke-linecap="round" />
	<path d="M 49.862 53.059 l -6.379 -13.68 c 2.32 -1.607 3.22 -4.693 1.987 -7.338 l -10.698 4.988 c 1.233 2.644 4.176 3.939 6.898 3.195 l 6.379 13.68 c -4.372 2.592 -6.149 8.128 -3.956 12.832 l 18.141 -8.459 C 60.041 53.573 54.658 51.376 49.862 53.059 z" style="stroke: none; stroke-width: 1; stroke-dasharray: none; stroke-linecap: butt; stroke-linejoin: miter; stroke-miterlimit: 10; fill: rgb(248,204,29); fill-rule: nonzero; opacity: 1;" transform=" matrix(1 0 0 1 0 0) " stroke-linecap="round" />
	<path d="M 84.109 21.619 c -0.349 0 -0.688 -0.183 -0.871 -0.508 C 77.347 10.69 66.26 4.217 54.302 4.217 c -10.208 0 -19.703 4.595 -26.05 12.607 c -0.343 0.433 -0.971 0.504 -1.405 0.163 c -0.433 -0.343 -0.506 -0.972 -0.163 -1.405 C 33.413 7.088 43.479 2.217 54.302 2.217 c 12.678 0 24.432 6.863 30.676 17.91 c 0.272 0.481 0.103 1.091 -0.378 1.363 C 84.445 21.578 84.276 21.619 84.109 21.619 z" style="stroke: none; stroke-width: 1; stroke-dasharray: none; stroke-linecap: butt; stroke-linejoin: miter; stroke-miterlimit: 10; fill: rgb(248,204,29); fill-rule: nonzero; opacity: 1;" transform=" matrix(1 0 0 1 0 0) " stroke-linecap="round" />
	<path d="M 33.773 88.339 c -10.823 0 -20.889 -4.871 -27.618 -13.364 c -0.343 -0.433 -0.27 -1.062 0.163 -1.405 c 0.432 -0.343 1.061 -0.271 1.405 0.163 c 6.347 8.012 15.842 12.607 26.05 12.607 c 11.957 0 23.044 -6.474 28.936 -16.895 c 0.272 -0.481 0.883 -0.649 1.362 -0.378 c 0.48 0.271 0.65 0.882 0.378 1.362 C 58.204 81.476 46.45 88.339 33.773 88.339 z" style="stroke: none; stroke-width: 1; stroke-dasharray: none; stroke-linecap: butt; stroke-linejoin: miter; stroke-miterlimit: 10; fill: rgb(248,204,29); fill-rule: nonzero; opacity: 1;" transform=" matrix(1 0 0 1 0 0) " stroke-linecap="round" />
	<path d="M 88.737 26.119 h -0.955 v -0.956 c 0 -0.552 -0.447 -1 -1 -1 c -0.553 0 -1 0.448 -1 1 v 0.956 h -0.956 c -0.553 0 -1 0.448 -1 1 s 0.447 1 1 1 h 0.956 v 0.956 c 0 0.552 0.447 1 1 1 c 0.553 0 1 -0.448 1 -1 v -0.956 h 0.955 c 0.553 0 1 -0.448 1 -1 S 89.29 26.119 88.737 26.119 z" style="stroke: none; stroke-width: 1; stroke-dasharray: none; stroke-linecap: butt; stroke-linejoin: miter; stroke-miterlimit: 10; fill: rgb(248,204,29); fill-rule: nonzero; opacity: 1;" transform=" matrix(1 0 0 1 0 0) " stroke-linecap="round" />
	<path d="M 26.947 6.031 c -0.806 0 -1.563 -0.314 -2.133 -0.884 c -0.57 -0.569 -0.884 -1.327 -0.884 -2.133 c 0 -0.806 0.314 -1.563 0.884 -2.133 c 1.176 -1.176 3.09 -1.175 4.266 0 c 1.176 1.177 1.176 3.09 0 4.266 C 28.51 5.717 27.753 6.031 26.947 6.031 z M 26.947 1.999 c -0.26 0 -0.521 0.099 -0.719 0.297 c -0.192 0.191 -0.298 0.447 -0.298 0.718 s 0.106 0.527 0.298 0.718 c 0.396 0.396 1.041 0.397 1.438 0 c 0.396 -0.396 0.396 -1.041 0 -1.438 C 27.467 2.098 27.207 1.999 26.947 1.999 z" style="stroke: none; stroke-width: 1; stroke-dasharray: none; stroke-linecap: butt; stroke-linejoin: miter; stroke-miterlimit: 10; fill: rgb(248,204,29); fill-rule: nonzero; opacity: 1;" transform=" matrix(1 0 0 1 0 0) " stroke-linecap="round" />
	<path d="M 15.939 63.825 c -0.218 0 -0.437 -0.07 -0.621 -0.216 C 6.825 56.88 1.954 46.814 1.954 35.99 c 0 -12.677 6.863 -24.432 17.91 -30.677 c 0.482 -0.272 1.091 -0.102 1.363 0.378 c 0.271 0.481 0.102 1.091 -0.378 1.363 C 10.428 12.945 3.954 24.033 3.954 35.99 c 0 10.209 4.595 19.704 12.606 26.05 c 0.433 0.344 0.506 0.973 0.163 1.405 C 16.526 63.695 16.234 63.825 15.939 63.825 z" style="stroke: none; stroke-width: 1; stroke-dasharray: none; stroke-linecap: butt; stroke-linejoin: miter; stroke-miterlimit: 10; fill: rgb(248,204,29); fill-rule: nonzero; opacity: 1;" transform=" matrix(1 0 0 1 0 0) " stroke-linecap="round" />
	<path d="M 74.091 84.353 c -0.295 0 -0.588 -0.13 -0.785 -0.379 c -0.343 -0.433 -0.27 -1.062 0.163 -1.405 c 8.012 -6.347 12.607 -15.841 12.607 -26.049 c 0 -11.958 -6.474 -23.046 -16.895 -28.936 c -0.48 -0.272 -0.65 -0.882 -0.378 -1.363 c 0.271 -0.481 0.883 -0.65 1.362 -0.378 c 11.047 6.245 17.91 17.999 17.91 30.677 c 0 10.822 -4.871 20.889 -13.364 27.618 C 74.528 84.283 74.308 84.353 74.091 84.353 z" style="stroke: none; stroke-width: 1; stroke-dasharray: none; stroke-linecap: butt; stroke-linejoin: miter; stroke-miterlimit: 10; fill: rgb(248,204,29); fill-rule: nonzero; opacity: 1;" transform=" matrix(1 0 0 1 0 0) " stroke-linecap="round" />
	<path d="M 67.756 90 c -0.807 0 -1.564 -0.313 -2.134 -0.884 c -1.175 -1.175 -1.175 -3.089 0 -4.266 c 1.178 -1.176 3.089 -1.175 4.267 -0.001 l 0.001 0.001 c 1.175 1.177 1.175 3.091 -0.001 4.266 C 69.319 89.687 68.562 90 67.756 90 z M 67.756 85.968 c -0.261 0 -0.521 0.099 -0.719 0.297 c -0.396 0.396 -0.396 1.041 0 1.438 c 0.385 0.385 1.053 0.385 1.438 0 c 0.396 -0.396 0.396 -1.04 0 -1.437 l 0 0 C 68.277 86.067 68.016 85.968 67.756 85.968 z" style="stroke: none; stroke-width: 1; stroke-dasharray: none; stroke-linecap: butt; stroke-linejoin: miter; stroke-miterlimit: 10; fill: rgb(248,204,29); fill-rule: nonzero; opacity: 1;" transform=" matrix(1 0 0 1 0 0) " stroke-linecap="round" />
	<path d="M 5.174 67.515 H 4.219 v -0.956 c 0 -0.553 -0.448 -1 -1 -1 s -1 0.447 -1 1 v 0.956 H 1.263 c -0.552 0 -1 0.447 -1 1 c 0 0.553 0.448 1 1 1 h 0.956 v 0.955 c 0 0.553 0.448 1 1 1 s 1 -0.447 1 -1 v -0.955 h 0.955 c 0.552 0 1 -0.447 1 -1 C 6.174 67.963 5.726 67.515 5.174 67.515 z" style="stroke: none; stroke-width: 1; stroke-dasharray: none; stroke-linecap: butt; stroke-linejoin: miter; stroke-miterlimit: 10; fill: rgb(248,204,29); fill-rule: nonzero; opacity: 1;" transform=" matrix(1 0 0 1 0 0) " stroke-linecap="round" />
</g>
</svg>